<svg version="1.1" class='news__item__reveal__icon' xmlns="http://www.w3.org/2000/svg" xmlns:xlink="http://www.w3.org/1999/xlink" viewBox="0 0 448 448" enable-background="new 0 0 448 448" xml:space="preserve">
	<path fill="#029cd7" d="M125.1,176h197.8c10.699,0,16.1,13,8.5,20.5l-98.9,98.3
		c-4.7,4.7-12.2,4.7-16.9,0l-98.9-98.3C109,189,114.4,176,125.1,176z M448,48v352c0,26.5-21.5,48-48,48H48c-26.5,0-48-21.5-48-48V48
		C0,21.5,21.5,0,48,0h352C426.5,0,448,21.5,448,48 M400,394V54c0-3.3-2.7-6-6-6H54c-3.3,0-6,2.7-6,6v340c0,3.3,2.7,6,6,6h340
		C397.3,400,400,397.3,400,394"></path>
</svg>